<svg width="157" height="74" viewBox="0 0 157 74" fill="none" xmlns="http://www.w3.org/2000/svg">
<path d="M43.8581 11.6326C47.0176 11.6326 49.5789 9.0713 49.5789 5.91176C49.5789 2.75223 47.0176 0.190918 43.8581 0.190918C40.6985 0.190918 38.1372 2.75223 38.1372 5.91176C38.1372 9.0713 40.6985 11.6326 43.8581 11.6326Z" fill="#28293D"/>
<path fill-rule="evenodd" clip-rule="evenodd" d="M20.3314 53.0171C21.5049 52.2346 22.0284 51.1056 22.0284 49.8114C22.0284 48.3807 21.5371 47.2773 20.5562 46.5032C19.5741 45.7291 17.3523 44.9293 13.889 44.1057C9.186 42.9689 5.86105 41.4887 3.91414 39.6649C1.96663 37.8423 0.99348 35.3416 0.99348 32.1658C0.99348 31.035 1.11035 29.9621 1.3429 28.9458C1.08828 29.6346 0.897478 30.3927 0.77166 31.2306C-0.144848 38.6528 1.32324 44.7981 4.18784 48.8727C9.17765 55.4695 18.1507 54.4723 20.332 53.0171H20.3314Z" fill="#28293D"/>
<path fill-rule="evenodd" clip-rule="evenodd" d="M39.4645 15.056C33.8335 9.53495 26.4293 5.78471 18.0871 5.15918V18.227C20.5353 18.2681 22.8656 18.585 25.0769 19.179C27.4514 19.8164 29.7002 20.7833 31.8234 22.079L27.7299 30.5195C26.2377 29.3844 24.7067 28.5276 23.1377 27.9496C21.5686 27.3722 20.015 27.0826 18.4787 27.0826C16.9424 27.0826 15.615 27.4198 14.6269 28.0935C13.6388 28.7672 13.146 29.6318 13.146 30.6854C13.146 31.7391 13.5811 32.6197 14.4508 33.2637C15.3204 33.9082 16.9996 34.5231 19.4871 35.1088L20.0775 35.2556C25.4133 36.5453 28.9228 37.9617 30.6061 39.5048C31.743 40.5602 32.6067 41.8249 33.1972 43.2996C33.7877 44.7748 34.0829 46.4106 34.0829 48.2081C34.0829 52.7611 32.4079 56.4192 29.0597 59.1829C26.2103 61.5352 22.5525 62.8862 18.0865 63.2364V73.8093C26.4287 73.0803 33.8329 69.4341 39.4639 63.8085C45.7204 57.5579 49.5787 49.0156 49.5787 39.4316C49.5787 29.8476 45.7204 21.3054 39.4639 15.0548L39.4645 15.056Z" fill="#28293D"/>
<path d="M59.2622 27.9961C59.2622 29.3893 59.7798 30.4505 60.8149 31.1797C61.8501 31.9089 63.1847 32.2734 64.8188 32.2734C66.466 32.2734 67.7876 31.8991 68.7837 31.1504C69.7863 30.4017 70.2876 29.3535 70.2876 28.0059C70.2876 26.7298 69.8937 25.7467 69.106 25.0566C68.3247 24.3665 67.2049 23.8229 65.7466 23.4258C64.4054 23.0612 63.5363 22.752 63.1392 22.498C62.7485 22.2441 62.5532 21.8763 62.5532 21.3945C62.5532 20.9062 62.729 20.5189 63.0806 20.2324C63.4321 19.9395 63.9855 19.793 64.7407 19.793C65.4829 19.793 66.0428 19.9753 66.4204 20.3398C66.8045 20.6979 66.9966 21.1764 66.9966 21.7754V22.0098H70.0044V21.707C70.0044 20.431 69.5226 19.4121 68.5591 18.6504C67.5955 17.8887 66.3162 17.5078 64.7212 17.5078C63.1196 17.5078 61.8436 17.8822 60.8931 18.6309C59.9491 19.373 59.4771 20.3724 59.4771 21.6289C59.4771 22.7878 59.8579 23.7057 60.6196 24.3828C61.3879 25.0534 62.5142 25.5872 63.9985 25.9844C65.3397 26.3424 66.2121 26.6712 66.6157 26.9707C67.0194 27.2702 67.2212 27.6934 67.2212 28.2402C67.2212 28.7741 67.0129 29.2038 66.5962 29.5293C66.1795 29.8483 65.5838 30.0078 64.8091 30.0078C64.0278 30.0078 63.4159 29.8353 62.9731 29.4902C62.5369 29.1387 62.3221 28.6178 62.3286 27.9277V27.6641H59.2622V27.9961ZM71.645 29.0312C71.645 30.0794 71.9771 30.8672 72.6411 31.3945C73.3052 31.9219 74.1385 32.1855 75.1411 32.1855C75.981 32.1855 76.6808 32.0358 77.2407 31.7363C77.8071 31.4303 78.188 31.0853 78.3833 30.7012C78.4093 30.9355 78.4517 31.1732 78.5103 31.4141C78.5688 31.6549 78.6405 31.8503 78.7251 32H81.6353V31.8438C81.505 31.5833 81.4009 31.2676 81.3228 30.8965C81.2511 30.5254 81.2153 30.1348 81.2153 29.7246V25.0957C81.2153 23.8978 80.828 23.0156 80.0532 22.4492C79.285 21.8828 78.2108 21.5996 76.8306 21.5996C75.4504 21.5996 74.3306 21.8958 73.4712 22.4883C72.6183 23.0807 72.1919 23.8359 72.1919 24.7539V24.9102L75.0825 24.9199V24.7539C75.0825 24.4154 75.2062 24.1322 75.4536 23.9043C75.701 23.6699 76.1144 23.5527 76.6938 23.5527C77.2733 23.5527 77.6769 23.6927 77.9048 23.9727C78.1392 24.2461 78.2563 24.6107 78.2563 25.0664V25.6426H76.2251C74.897 25.6491 73.8 25.9355 72.9341 26.502C72.0747 27.0684 71.645 27.9115 71.645 29.0312ZM74.604 28.7773C74.604 28.3216 74.7765 27.9766 75.1216 27.7422C75.4666 27.5013 75.9972 27.3809 76.7134 27.3809H78.2563V28.3281C78.2563 28.8424 78.0578 29.2884 77.6606 29.666C77.27 30.0436 76.7785 30.2324 76.186 30.2324C75.6457 30.2324 75.2453 30.1022 74.9849 29.8418C74.731 29.5749 74.604 29.2201 74.604 28.7773ZM83.6958 32H86.6646V17.1465H83.6958V32ZM88.5591 27.0879C88.5591 28.6569 89.0311 29.9167 89.9751 30.8672C90.9191 31.8177 92.2212 32.293 93.8813 32.293C94.9621 32.293 95.8866 32.0846 96.6548 31.668C97.423 31.2513 97.9699 30.7207 98.2954 30.0762L96.147 28.8262C95.9126 29.1712 95.6001 29.474 95.2095 29.7344C94.8254 29.9883 94.3664 30.1152 93.8325 30.1152C93.0708 30.1152 92.4914 29.8581 92.0942 29.3438C91.7036 28.8229 91.5083 28.1165 91.5083 27.2246V26.5898C91.5083 25.7109 91.6906 25.0111 92.0552 24.4902C92.4198 23.9694 92.9504 23.709 93.647 23.709C94.259 23.709 94.7277 23.8978 95.0532 24.2754C95.3787 24.6465 95.5415 25.1055 95.5415 25.6523V25.8477H90.5122V27.6348H98.4614V26.6094C98.4614 25.0469 98.035 23.8197 97.1821 22.9277C96.3358 22.0358 95.1606 21.5898 93.6567 21.5898C92.1659 21.5898 90.9419 22.0651 89.9849 23.0156C89.0343 23.9596 88.5591 25.2129 88.5591 26.7754V27.0879ZM99.6235 28.7969V28.9141C99.63 29.9948 100.037 30.8281 100.844 31.4141C101.652 31.9935 102.797 32.2832 104.282 32.2832C105.773 32.2832 106.905 31.9935 107.68 31.4141C108.461 30.8281 108.852 30.0111 108.852 28.9629C108.852 28.0905 108.569 27.4069 108.002 26.9121C107.443 26.4173 106.557 26.0527 105.346 25.8184C104.252 25.5905 103.553 25.3919 103.247 25.2227C102.947 25.0534 102.797 24.8223 102.797 24.5293C102.797 24.2363 102.911 24.0052 103.139 23.8359C103.374 23.6602 103.748 23.5723 104.262 23.5723C104.783 23.5723 105.17 23.6797 105.424 23.8945C105.685 24.1094 105.815 24.4121 105.815 24.8027V24.9688H108.667V24.8418C108.667 23.8327 108.269 23.0384 107.475 22.459C106.681 21.8796 105.616 21.5898 104.282 21.5898C102.941 21.5898 101.876 21.8698 101.088 22.4297C100.307 22.9831 99.9165 23.748 99.9165 24.7246C99.9165 25.5449 100.193 26.2122 100.747 26.7266C101.3 27.2344 102.179 27.612 103.383 27.8594C104.471 28.0807 105.164 28.276 105.463 28.4453C105.763 28.6081 105.913 28.862 105.913 29.207C105.913 29.5456 105.773 29.8158 105.493 30.0176C105.213 30.2194 104.799 30.3203 104.252 30.3203C103.712 30.3203 103.282 30.2161 102.963 30.0078C102.644 29.793 102.485 29.4479 102.485 28.9727V28.8164L99.6235 28.7969ZM111.108 32H114.057V22.9082L114.047 22.7129V21.0723C114.047 20.4342 114.178 19.959 114.438 19.6465C114.705 19.334 115.073 19.1777 115.542 19.1777C115.698 19.1777 115.847 19.1875 115.991 19.207C116.134 19.2266 116.267 19.2493 116.391 19.2754L116.479 17.1074C116.29 17.0553 116.079 17.0163 115.844 16.9902C115.616 16.9642 115.375 16.9512 115.122 16.9512C113.95 16.9512 112.986 17.2865 112.231 17.957C111.482 18.6211 111.108 19.6172 111.108 20.9453V32ZM109.731 24.0312H115.893V21.8828H112.495H112.153H109.731V24.0312ZM116.489 27.0879C116.489 28.6764 116.977 29.9395 117.954 30.877C118.93 31.8145 120.203 32.2832 121.772 32.2832C123.341 32.2832 124.611 31.8145 125.581 30.877C126.557 29.9395 127.045 28.6764 127.045 27.0879V26.7754C127.045 25.1868 126.557 23.9271 125.581 22.9961C124.611 22.0586 123.341 21.5898 121.772 21.5898C120.203 21.5898 118.93 22.0586 117.954 22.9961C116.977 23.9271 116.489 25.1868 116.489 26.7754V27.0879ZM119.516 26.6191C119.516 25.7077 119.715 25.0111 120.112 24.5293C120.509 24.0475 121.062 23.8066 121.772 23.8066C122.482 23.8066 123.032 24.0475 123.422 24.5293C123.819 25.0111 124.018 25.7077 124.018 26.6191V27.2441C124.018 28.1556 123.823 28.8555 123.432 29.3438C123.048 29.8255 122.495 30.0664 121.772 30.0664C121.049 30.0664 120.493 29.8255 120.102 29.3438C119.711 28.8555 119.516 28.1556 119.516 27.2441V26.6191ZM128.92 32H131.909V25.5645C132.078 25.1543 132.342 24.8158 132.7 24.5488C133.064 24.2819 133.468 24.1484 133.911 24.1484C134.073 24.1484 134.22 24.1582 134.35 24.1777C134.487 24.1908 134.614 24.2135 134.731 24.2461V21.7461C134.672 21.7201 134.571 21.694 134.428 21.668C134.285 21.6354 134.142 21.6191 133.999 21.6191C133.536 21.6191 133.12 21.7559 132.749 22.0293C132.377 22.3027 132.088 22.6348 131.879 23.0254H131.831L131.772 21.8828H128.92V32ZM135.493 27.0879C135.493 28.6829 135.968 29.9492 136.918 30.8867C137.869 31.8177 139.125 32.2832 140.688 32.2832C142.185 32.2832 143.341 31.9121 144.155 31.1699C144.969 30.4212 145.379 29.526 145.385 28.4844V28.3477H142.504V28.4648C142.504 28.9076 142.364 29.2949 142.084 29.627C141.811 29.9525 141.342 30.1152 140.678 30.1152C139.949 30.1152 139.405 29.8581 139.047 29.3438C138.696 28.8229 138.52 28.123 138.52 27.2441V26.6191C138.52 25.7402 138.702 25.0469 139.067 24.5391C139.431 24.0247 139.969 23.7676 140.678 23.7676C141.29 23.7676 141.746 23.9238 142.045 24.2363C142.351 24.5423 142.504 24.9329 142.504 25.4082V25.5352H145.395L145.375 25.3496C145.323 24.3014 144.903 23.4128 144.116 22.6836C143.328 21.9544 142.185 21.5898 140.688 21.5898C139.119 21.5898 137.859 22.0553 136.909 22.9863C135.965 23.9173 135.493 25.1803 135.493 26.7754V27.0879ZM146.508 27.0879C146.508 28.6569 146.98 29.9167 147.924 30.8672C148.868 31.8177 150.17 32.293 151.831 32.293C152.911 32.293 153.836 32.0846 154.604 31.668C155.372 31.2513 155.919 30.7207 156.245 30.0762L154.096 28.8262C153.862 29.1712 153.549 29.474 153.159 29.7344C152.775 29.9883 152.316 30.1152 151.782 30.1152C151.02 30.1152 150.441 29.8581 150.043 29.3438C149.653 28.8229 149.458 28.1165 149.458 27.2246V26.5898C149.458 25.7109 149.64 25.0111 150.004 24.4902C150.369 23.9694 150.9 23.709 151.596 23.709C152.208 23.709 152.677 23.8978 153.002 24.2754C153.328 24.6465 153.491 25.1055 153.491 25.6523V25.8477H148.461V27.6348H156.411V26.6094C156.411 25.0469 155.984 23.8197 155.131 22.9277C154.285 22.0358 153.11 21.5898 151.606 21.5898C150.115 21.5898 148.891 22.0651 147.934 23.0156C146.984 23.9596 146.508 25.2129 146.508 26.7754V27.0879ZM60.0044 55H69.1548V52.6562H63.061V40.7812H60.0044V55ZM70.2192 52.0312C70.2192 53.0794 70.5513 53.8672 71.2153 54.3945C71.8794 54.9219 72.7127 55.1855 73.7153 55.1855C74.5552 55.1855 75.255 55.0358 75.8149 54.7363C76.3813 54.4303 76.7622 54.0853 76.9575 53.7012C76.9836 53.9355 77.0259 54.1732 77.0845 54.4141C77.1431 54.6549 77.2147 54.8503 77.2993 55H80.2095V54.8438C80.0793 54.5833 79.9751 54.2676 79.897 53.8965C79.8254 53.5254 79.7896 53.1348 79.7896 52.7246V48.0957C79.7896 46.8978 79.4022 46.0156 78.6274 45.4492C77.8592 44.8828 76.785 44.5996 75.4048 44.5996C74.0246 44.5996 72.9048 44.8958 72.0454 45.4883C71.1925 46.0807 70.7661 46.8359 70.7661 47.7539V47.9102L73.6567 47.9199V47.7539C73.6567 47.4154 73.7804 47.1322 74.0278 46.9043C74.2752 46.6699 74.6886 46.5527 75.2681 46.5527C75.8475 46.5527 76.2511 46.6927 76.479 46.9727C76.7134 47.2461 76.8306 47.6107 76.8306 48.0664V48.6426H74.7993C73.4712 48.6491 72.3742 48.9355 71.5083 49.502C70.6489 50.0684 70.2192 50.9115 70.2192 52.0312ZM73.1782 51.7773C73.1782 51.3216 73.3507 50.9766 73.6958 50.7422C74.0409 50.5013 74.5715 50.3809 75.2876 50.3809H76.8306V51.3281C76.8306 51.8424 76.632 52.2884 76.2349 52.666C75.8442 53.0436 75.3527 53.2324 74.7603 53.2324C74.2199 53.2324 73.8195 53.1022 73.5591 52.8418C73.3052 52.5749 73.1782 52.2201 73.1782 51.7773ZM82.2407 55H85.063L85.1216 53.8672H85.1704C85.3918 54.2578 85.7694 54.5768 86.3032 54.8242C86.8436 55.0716 87.436 55.1953 88.0806 55.1953C89.3761 55.1953 90.4113 54.7201 91.186 53.7695C91.9608 52.819 92.3481 51.5885 92.3481 50.0781V49.7656C92.3481 48.2552 91.964 47.028 91.1958 46.084C90.4276 45.14 89.3924 44.668 88.0903 44.668C87.4523 44.668 86.8924 44.7819 86.4106 45.0098C85.9289 45.2311 85.5285 45.5436 85.2095 45.9473V40.1465H82.2407V55ZM85.2095 51.5625V48.3105C85.3527 47.9395 85.5968 47.6107 85.9419 47.3242C86.2869 47.0312 86.7199 46.8848 87.2407 46.8848C87.9569 46.8848 88.481 47.1419 88.813 47.6562C89.1515 48.1641 89.3208 48.8314 89.3208 49.6582V50.1953C89.3208 51.0221 89.1515 51.696 88.813 52.2168C88.4744 52.7376 87.9569 52.998 87.2603 52.998C86.7199 52.998 86.2772 52.8548 85.9321 52.5684C85.5936 52.2754 85.3527 51.9401 85.2095 51.5625Z" fill="#28293D"/>
</svg>
